<svg width="20" height="20" viewBox="0 0 20 20" fill="none" xmlns="http://www.w3.org/2000/svg">
<path d="M15.3036 12.2725L16.2506 14.3559L18.334 15.3029L16.2506 16.2499L15.3036 18.3333L14.3566 16.2499L12.2733 15.3029L14.3566 14.3559L15.3036 12.2725Z" fill="url(#paint0_radial_4_31831)"/>
<path d="M15.3036 7.72728L14.3566 5.64391L12.2733 4.69692L14.3566 3.74993L15.3036 1.66656L16.2506 3.74993L18.334 4.69692L16.2506 5.64391L15.3036 7.72728Z" fill="url(#paint1_radial_4_31831)"/>
<path fill-rule="evenodd" clip-rule="evenodd" d="M7.72771 16.0605L9.62168 11.8938L13.7884 9.99979L9.62168 8.10582L7.72771 3.93908L5.83373 8.10582L1.66699 9.99979L5.83373 11.8938L7.72771 16.0605Z" fill="url(#paint2_radial_4_31831)"/>
<defs>
<radialGradient id="paint0_radial_4_31831" cx="0" cy="0" r="1" gradientTransform="matrix(16.667 16.6667 16.667 -16.6667 1.667 1.66656)" gradientUnits="userSpaceOnUse">
<stop stop-color="#009AD9"/>
<stop offset="0.5" stop-color="#3871D2"/>
<stop offset="1" stop-color="#7F3E98"/>
</radialGradient>
<radialGradient id="paint1_radial_4_31831" cx="0" cy="0" r="1" gradientTransform="matrix(16.667 16.6667 16.667 -16.6667 1.667 1.66656)" gradientUnits="userSpaceOnUse">
<stop stop-color="#009AD9"/>
<stop offset="0.5" stop-color="#3871D2"/>
<stop offset="1" stop-color="#7F3E98"/>
</radialGradient>
<radialGradient id="paint2_radial_4_31831" cx="0" cy="0" r="1" gradientTransform="matrix(16.667 16.6667 16.667 -16.6667 1.667 1.66656)" gradientUnits="userSpaceOnUse">
<stop stop-color="#009AD9"/>
<stop offset="0.5" stop-color="#3871D2"/>
<stop offset="1" stop-color="#7F3E98"/>
</radialGradient>
</defs>
</svg>
