<svg width="12" height="16" viewBox="0 0 12 16" fill="none" xmlns="http://www.w3.org/2000/svg">
<g clip-path="url(#clip0_31_1588)">
<path d="M3.0933 5.92931L5.15989 4.5533C5.39188 4.39767 5.67405 4.31776 5.96137 4.32633C6.31183 4.33434 6.65085 4.44224 6.93132 4.63503C7.21178 4.82783 7.41975 5.09593 7.52631 5.40208C7.64624 5.74667 7.75586 5.97955 7.85516 6.10072C8.15519 6.46766 8.54439 6.76545 8.99188 6.97044C9.43937 7.17544 9.93282 7.28201 10.4331 7.28169V8.46383C9.76718 8.46449 9.10942 8.32982 8.50712 8.0695C7.90482 7.80919 7.37297 7.4297 6.94985 6.95837L6.50043 9.29606L7.82936 10.3186L9.26276 13.9289L8.05053 14.3332L6.73514 11.0208L4.54926 9.33921C4.36987 9.20642 4.23261 9.03198 4.15175 8.83405C4.07089 8.63612 4.0494 8.42194 4.08951 8.21381L4.41772 6.50856L3.98119 6.79937L2.6097 8.53003L1.56641 7.83493L3.08233 5.92222L3.0933 5.92931ZM6.88666 4.03079C6.54464 4.03079 6.21662 3.90624 5.97478 3.68455C5.73293 3.46285 5.59706 3.16217 5.59706 2.84865C5.59706 2.53512 5.73293 2.23444 5.97478 2.01275C6.21662 1.79105 6.54464 1.6665 6.88666 1.6665C7.22869 1.6665 7.5567 1.79105 7.79855 2.01275C8.0404 2.23444 8.17627 2.53512 8.17627 2.84865C8.17627 3.16217 8.0404 3.46285 7.79855 3.68455C7.5567 3.90624 7.22869 4.03079 6.88666 4.03079ZM4.97031 11.8217L2.89792 14.0855L1.91009 13.326L3.82902 11.23L4.31004 9.94151L5.46488 10.8281L4.97031 11.8217Z" fill="#4F545D"/>
</g>
<defs>
<clipPath id="clip0_31_1588">
<rect width="12" height="16" fill="white"/>
</clipPath>
</defs>
</svg>
