<svg width="72" height="63" viewBox="0 0 72 63" fill="none" xmlns="http://www.w3.org/2000/svg">
<g clip-path="url(#clip0_91_40349)">
<g filter="url(#filter0_d_91_40349)">
<path d="M39.4813 52.9057C47.7564 51.3185 54 44.1816 54 35.6174C54 25.8876 45.9411 18 36 18C26.0589 18 18 25.8876 18 35.6174C18 44.1816 24.2436 51.3185 32.5187 52.9057L35.2167 59.5967C35.3941 59.8492 35.687 60 36 60C36.313 60 36.6059 59.8492 36.7833 59.5967L39.4813 52.9057Z" fill="#222429"/>
</g>
<path d="M36.8336 32.523V42.6663H35.1669V32.523L30.6969 36.993L29.5186 35.8147L36.0002 29.333L42.4819 35.8147L41.3036 36.993L36.8336 32.523Z" fill="#FAFBFC"/>
</g>
<defs>
<filter id="filter0_d_91_40349" x="16" y="17" width="40" height="46" filterUnits="userSpaceOnUse" color-interpolation-filters="sRGB">
<feFlood flood-opacity="0" result="BackgroundImageFix"/>
<feColorMatrix in="SourceAlpha" type="matrix" values="0 0 0 0 0 0 0 0 0 0 0 0 0 0 0 0 0 0 127 0" result="hardAlpha"/>
<feOffset dy="1"/>
<feGaussianBlur stdDeviation="1"/>
<feColorMatrix type="matrix" values="0 0 0 0 0.0823529 0 0 0 0 0.0862745 0 0 0 0 0.101961 0 0 0 0.1 0"/>
<feBlend mode="normal" in2="BackgroundImageFix" result="effect1_dropShadow_91_40349"/>
<feBlend mode="normal" in="SourceGraphic" in2="effect1_dropShadow_91_40349" result="shape"/>
</filter>
<clipPath id="clip0_91_40349">
<rect width="72" height="62.9392" fill="white"/>
</clipPath>
</defs>
</svg>
