<svg width="20" height="20" viewBox="0 0 20 20" fill="none" xmlns="http://www.w3.org/2000/svg">
<path fill-rule="evenodd" clip-rule="evenodd" d="M14.4098 1.6665C15.192 1.66915 15.8788 2.18726 16.0965 2.93861L17.0885 6.92966H18.2895V8.68405H17.5236L17.8509 9.99984V14.8244C17.8497 15.7928 17.0649 16.5776 16.0965 16.5788V18.3332H14.3421V16.5788H6.44737V18.3332H4.69298V16.5788C3.72457 16.5776 2.93982 15.7928 2.9386 14.8244V9.99984L3.21015 8.68405H2.5V6.92966H3.57336L4.39744 2.93946C4.61486 2.1878 5.30168 1.66911 6.08416 1.6665H14.4098ZM4.25439 13.9369L6.27176 13.9472V12.2031L4.25439 12.1928V13.9369ZM8.15121 13.9369L12.5877 13.9472V12.1928L8.15121 12.1825V13.9369ZM14.5177 13.9369L16.5351 13.9472V12.2031L14.5177 12.1928V13.9369ZM4.25439 9.99984H16.5351L15.5097 5.7535H4.98338L4.25439 9.99984Z" fill="#4F545D"/>
</svg>
