<svg width="32" height="32" viewBox="0 0 32 32" fill="none" xmlns="http://www.w3.org/2000/svg">
<g clip-path="url(#clip0_31_12469)">
<rect width="32" height="32" rx="16" fill="#E8E9EB"/>
<path d="M5.33301 25.2364C5.33301 22.5286 7.52812 20.3335 10.2359 20.3335H21.7634C24.4712 20.3335 26.6663 22.5286 26.6663 25.2364V32.3335L5.33301 32.3335V25.2364Z" fill="#28BFC7"/>
<path d="M13.333 16.5H18.6663V20.5C18.6663 21.9728 17.4724 23.1667 15.9997 23.1667C14.5269 23.1667 13.333 21.9728 13.333 20.5L13.333 16.5Z" fill="#E1EFFF"/>
<path d="M12 9.66675L20 9.66675V16.3334C20 18.5426 18.2091 20.3334 16 20.3334C13.7909 20.3334 12 18.5426 12 16.3334L12 9.66675Z" fill="white"/>
<path d="M21.333 14.0403L21.333 14.4594L19.9997 15.2976L19.9997 12.5689L18.3766 10.2149L11.9997 11.6297L11.9997 15.1669L11.371 14.4595L10.6663 13.6667L10.6663 10.823C10.6663 9.31937 11.5818 7.96724 12.9779 7.40881L17.333 5.66675L17.333 7.00008L17.6558 7.00008C19.6867 7.00008 21.333 8.64641 21.333 10.6773L21.333 14.0403Z" fill="#222429"/>
<path d="M6.66602 20.3619L10.6661 20.3333L21.3328 32.3333L17.3328 32.3333L6.66602 20.3619Z" fill="#187277"/>
</g>
<defs>
<clipPath id="clip0_31_12469">
<rect width="32" height="32" rx="16" fill="white"/>
</clipPath>
</defs>
</svg>
