<svg width="20" height="20" viewBox="0 0 20 20" fill="none" xmlns="http://www.w3.org/2000/svg">
<rect y="3.33325" width="20" height="13.3332" rx="2" fill="#E8E9EB"/>
<path fill-rule="evenodd" clip-rule="evenodd" d="M5.83383 12.6561H4.39144L3.30982 8.4698C3.25848 8.27724 3.14947 8.10699 2.98913 8.02676C2.58897 7.82512 2.14803 7.66465 1.66699 7.58371V7.42254H3.99058C4.31127 7.42254 4.55178 7.66465 4.59187 7.94582L5.15307 10.9655L6.59477 7.42254H7.99708L5.83383 12.6561ZM8.79907 12.656H7.43685L8.55856 7.42251H9.92078L8.79907 12.656ZM11.6826 8.8723C11.7227 8.59042 11.9632 8.42925 12.2438 8.42925C12.6847 8.38879 13.1651 8.46972 13.5659 8.67066L13.8064 7.54386C13.4056 7.38269 12.9646 7.30176 12.5645 7.30176C11.2423 7.30176 10.2803 8.02668 10.2803 9.03277C10.2803 9.79816 10.9617 10.2 11.4428 10.4421C11.9632 10.6835 12.1636 10.8447 12.1235 11.0861C12.1235 11.4482 11.7227 11.6094 11.3225 11.6094C10.8415 11.6094 10.3604 11.4887 9.9202 11.2871L9.67969 12.4146C10.1607 12.6155 10.6811 12.6964 11.1622 12.6964C12.6447 12.7362 13.5659 12.012 13.5659 10.925C13.5659 9.55605 11.6826 9.47582 11.6826 8.8723V8.8723ZM18.3332 12.656L17.2516 7.42251H16.0898C15.8493 7.42251 15.6088 7.58368 15.5286 7.82508L13.5257 12.656H14.928L15.2079 11.8913H16.9309L17.0913 12.656H18.3332ZM16.2906 8.83171L16.6908 10.8041H15.5691L16.2906 8.83171Z" fill="#172B85"/>
</svg>
