<svg width="54" height="64" viewBox="0 0 54 64" fill="none" xmlns="http://www.w3.org/2000/svg">
<g clip-path="url(#clip0_91_40337)">
<ellipse opacity="0.15" cx="27" cy="59" rx="9" ry="3" fill="url(#paint0_radial_91_40337)"/>
<ellipse opacity="0.5" cx="27" cy="59" rx="3" ry="1" fill="url(#paint1_radial_91_40337)"/>
<g filter="url(#filter0_d_91_40337)">
<path fill-rule="evenodd" clip-rule="evenodd" d="M31.0943 49.1679C31.1098 49.1224 31.1479 49.0876 31.1951 49.078C40.783 47.1341 48 38.6584 48 28.4971C48 16.8991 38.598 7.49707 27 7.49707C15.402 7.49707 6 16.8991 6 28.4971C6 38.6574 13.2156 47.1324 22.802 49.0774C22.8479 49.0867 22.8849 49.1206 22.9 49.1649L25.3328 56.3131C25.5745 57.0231 26.2413 57.5005 26.9913 57.5005C27.7403 57.5005 28.4064 57.0244 28.6488 56.3157L31.0943 49.1679Z" fill="#0069E2"/>
<path d="M22.9 49.1649L21.9533 49.4871L21.9533 49.4871L22.9 49.1649ZM25.3328 56.3131L26.2795 55.9909H26.2795L25.3328 56.3131ZM28.6488 56.3157L29.595 56.6394H29.595L28.6488 56.3157ZM31.0943 49.1679L32.0404 49.4916L32.0404 49.4916L31.0943 49.1679ZM22.802 49.0774L22.6032 50.0574L22.802 49.0774ZM31.1951 49.078L30.9964 48.0979L31.1951 49.078ZM48 28.4971H47C47 38.1734 40.1273 46.2467 30.9964 48.0979L31.1951 49.078L31.3938 50.058C41.4386 48.0215 49 39.1435 49 28.4971H48ZM27 7.49707V8.49707C38.0457 8.49707 47 17.4514 47 28.4971H48H49C49 16.3468 39.1503 6.49707 27 6.49707V7.49707ZM6 28.4971H7C7 17.4514 15.9543 8.49707 27 8.49707V7.49707V6.49707C14.8497 6.49707 5 16.3468 5 28.4971H6ZM22.802 49.0774L23.0008 48.0974C13.8713 46.2451 7 38.1724 7 28.4971H6H5C5 39.1424 12.5598 48.0198 22.6032 50.0574L22.802 49.0774ZM25.3328 56.3131L26.2795 55.9909L23.8467 48.8427L22.9 49.1649L21.9533 49.4871L24.3862 56.6353L25.3328 56.3131ZM26.9913 57.5005V56.5005C26.6694 56.5005 26.3832 56.2956 26.2795 55.9909L25.3328 56.3131L24.3862 56.6353C24.7658 57.7506 25.8132 58.5005 26.9913 58.5005V57.5005ZM28.6488 56.3157L27.7027 55.992C27.5986 56.2962 27.3127 56.5005 26.9913 56.5005V57.5005V58.5005C28.1678 58.5005 29.2142 57.7526 29.595 56.6394L28.6488 56.3157ZM31.0943 49.1679L30.1481 48.8442L27.7027 55.992L28.6488 56.3157L29.595 56.6394L32.0404 49.4916L31.0943 49.1679ZM22.802 49.0774L22.6032 50.0574C22.2847 49.9928 22.0475 49.7638 21.9533 49.4871L22.9 49.1649L23.8467 48.8427C23.7223 48.4773 23.4111 48.1806 23.0008 48.0974L22.802 49.0774ZM31.1951 49.078L30.9964 48.0979C30.5849 48.1814 30.2731 48.4788 30.1481 48.8442L31.0943 49.1679L32.0404 49.4916C31.9466 49.766 31.711 49.9937 31.3938 50.058L31.1951 49.078Z" fill="#FAFBFC"/>
</g>
<ellipse cx="27" cy="28.4972" rx="6" ry="6.00012" fill="#FAFBFC"/>
</g>
<defs>
<filter id="filter0_d_91_40337" x="-3.00008" y="2.49703" width="60.0002" height="68.0041" filterUnits="userSpaceOnUse" color-interpolation-filters="sRGB">
<feFlood flood-opacity="0" result="BackgroundImageFix"/>
<feColorMatrix in="SourceAlpha" type="matrix" values="0 0 0 0 0 0 0 0 0 0 0 0 0 0 0 0 0 0 127 0" result="hardAlpha"/>
<feOffset dy="4.00004"/>
<feGaussianBlur stdDeviation="4.00004"/>
<feColorMatrix type="matrix" values="0 0 0 0 0.0823529 0 0 0 0 0.0862745 0 0 0 0 0.101961 0 0 0 0.1 0"/>
<feBlend mode="normal" in2="BackgroundImageFix" result="effect1_dropShadow_91_40337"/>
<feBlend mode="normal" in="SourceGraphic" in2="effect1_dropShadow_91_40337" result="shape"/>
</filter>
<radialGradient id="paint0_radial_91_40337" cx="0" cy="0" r="1" gradientTransform="matrix(8.47681 -0.00087477 0.000563427 2.82482 27 59)" gradientUnits="userSpaceOnUse">
<stop/>
<stop offset="1" stop-opacity="0"/>
</radialGradient>
<radialGradient id="paint1_radial_91_40337" cx="0" cy="0" r="1" gradientTransform="matrix(2.85599 0 3.9216e-05 0.951732 27 59)" gradientUnits="userSpaceOnUse">
<stop stop-opacity="0.71"/>
<stop offset="1" stop-opacity="0"/>
</radialGradient>
<clipPath id="clip0_91_40337">
<rect width="54" height="64" fill="white"/>
</clipPath>
</defs>
</svg>
